<svg width="293" height="185" viewBox="0 0 293 185" fill="none" xmlns="http://www.w3.org/2000/svg">
<rect width="293" height="185" rx="5" fill="#ECECEC"/>
<g filter="url(#filter0_i_661_6)">
<path d="M66.3884 107.858V83.3576H78.3584C81.4384 83.3576 83.7484 83.9409 85.2884 85.1076C86.8517 86.2743 87.6334 87.8143 87.6334 89.7276C87.6334 91.0109 87.3184 92.1309 86.6884 93.0876C86.0584 94.0209 85.1951 94.7443 84.0984 95.2576C83.0017 95.7709 81.7417 96.0276 80.3184 96.0276L80.9834 94.5926C82.5234 94.5926 83.8884 94.8493 85.0784 95.3626C86.2684 95.8526 87.1901 96.5876 87.8434 97.5676C88.5201 98.5476 88.8584 99.7493 88.8584 101.173C88.8584 103.273 88.0301 104.918 86.3734 106.108C84.7167 107.274 82.2784 107.858 79.0584 107.858H66.3884ZM72.0234 103.588H78.6384C80.1084 103.588 81.2167 103.354 81.9634 102.888C82.7334 102.398 83.1184 101.628 83.1184 100.578C83.1184 99.5509 82.7334 98.7926 81.9634 98.3026C81.2167 97.7893 80.1084 97.5326 78.6384 97.5326H71.6034V93.4026H77.6584C79.0351 93.4026 80.0851 93.1693 80.8084 92.7026C81.5551 92.2126 81.9284 91.4776 81.9284 90.4976C81.9284 89.5409 81.5551 88.8293 80.8084 88.3626C80.0851 87.8726 79.0351 87.6276 77.6584 87.6276H72.0234V103.588ZM98.3661 93.2276H110.161V97.6376H98.3661V93.2276ZM98.7861 103.308H112.121V107.858H93.1511V83.3576H111.666V87.9076H98.7861V103.308ZM124.683 108.278C122.723 108.278 120.844 108.021 119.048 107.508C117.251 106.971 115.804 106.283 114.708 105.443L116.633 101.173C117.683 101.919 118.919 102.538 120.343 103.028C121.789 103.494 123.248 103.728 124.718 103.728C125.838 103.728 126.736 103.623 127.413 103.413C128.113 103.179 128.626 102.864 128.953 102.468C129.279 102.071 129.443 101.616 129.443 101.103C129.443 100.449 129.186 99.9359 128.673 99.5626C128.159 99.1659 127.483 98.8509 126.643 98.6176C125.803 98.3609 124.869 98.1276 123.843 97.9176C122.839 97.6843 121.824 97.4043 120.798 97.0776C119.794 96.7509 118.873 96.3309 118.033 95.8176C117.193 95.3043 116.504 94.6276 115.968 93.7876C115.454 92.9476 115.198 91.8743 115.198 90.5676C115.198 89.1676 115.571 87.8959 116.318 86.7526C117.088 85.5859 118.231 84.6643 119.748 83.9876C121.288 83.2876 123.213 82.9376 125.523 82.9376C127.063 82.9376 128.579 83.1243 130.073 83.4976C131.566 83.8476 132.884 84.3843 134.028 85.1076L132.278 89.4126C131.134 88.7593 129.991 88.2809 128.848 87.9776C127.704 87.6509 126.584 87.4876 125.488 87.4876C124.391 87.4876 123.493 87.6159 122.793 87.8726C122.093 88.1293 121.591 88.4676 121.288 88.8876C120.984 89.2843 120.833 89.7509 120.833 90.2876C120.833 90.9176 121.089 91.4309 121.603 91.8276C122.116 92.2009 122.793 92.5043 123.633 92.7376C124.473 92.9709 125.394 93.2043 126.398 93.4376C127.424 93.6709 128.439 93.9393 129.443 94.2426C130.469 94.5459 131.403 94.9543 132.243 95.4676C133.083 95.9809 133.759 96.6576 134.273 97.4976C134.809 98.3376 135.078 99.3993 135.078 100.683C135.078 102.059 134.693 103.319 133.923 104.463C133.153 105.606 131.998 106.528 130.458 107.228C128.941 107.928 127.016 108.278 124.683 108.278Z" fill="#A9A9A9"/>
<path d="M179.469 108.278C177.532 108.278 175.735 107.963 174.079 107.333C172.445 106.703 171.022 105.816 169.809 104.673C168.619 103.529 167.685 102.188 167.009 100.648C166.355 99.1076 166.029 97.4276 166.029 95.6076C166.029 93.7876 166.355 92.1076 167.009 90.5676C167.685 89.0276 168.63 87.6859 169.844 86.5426C171.057 85.3993 172.48 84.5126 174.114 83.8826C175.747 83.2526 177.52 82.9376 179.434 82.9376C181.37 82.9376 183.144 83.2526 184.754 83.8826C186.387 84.5126 187.799 85.3993 188.989 86.5426C190.202 87.6859 191.147 89.0276 191.824 90.5676C192.5 92.0843 192.839 93.7643 192.839 95.6076C192.839 97.4276 192.5 99.1193 191.824 100.683C191.147 102.223 190.202 103.564 188.989 104.708C187.799 105.828 186.387 106.703 184.754 107.333C183.144 107.963 181.382 108.278 179.469 108.278ZM179.434 103.448C180.53 103.448 181.534 103.261 182.444 102.888C183.377 102.514 184.194 101.978 184.894 101.278C185.594 100.578 186.13 99.7493 186.504 98.7926C186.9 97.8359 187.099 96.7743 187.099 95.6076C187.099 94.4409 186.9 93.3793 186.504 92.4226C186.13 91.4659 185.594 90.6376 184.894 89.9376C184.217 89.2376 183.412 88.7009 182.479 88.3276C181.545 87.9543 180.53 87.7676 179.434 87.7676C178.337 87.7676 177.322 87.9543 176.389 88.3276C175.479 88.7009 174.674 89.2376 173.974 89.9376C173.274 90.6376 172.725 91.4659 172.329 92.4226C171.955 93.3793 171.769 94.4409 171.769 95.6076C171.769 96.7509 171.955 97.8126 172.329 98.7926C172.725 99.7493 173.262 100.578 173.939 101.278C174.639 101.978 175.455 102.514 176.389 102.888C177.322 103.261 178.337 103.448 179.434 103.448ZM207.985 108.278C204.508 108.278 201.79 107.309 199.83 105.373C197.87 103.436 196.89 100.671 196.89 97.0776V83.3576H202.56V96.8676C202.56 99.2009 203.038 100.881 203.995 101.908C204.951 102.934 206.293 103.448 208.02 103.448C209.746 103.448 211.088 102.934 212.045 101.908C213.001 100.881 213.48 99.2009 213.48 96.8676V83.3576H219.08V97.0776C219.08 100.671 218.1 103.436 216.14 105.373C214.18 107.309 211.461 108.278 207.985 108.278ZM224.683 107.858V83.3576H235.288C237.481 83.3576 239.371 83.7193 240.958 84.4426C242.545 85.1426 243.77 86.1576 244.633 87.4876C245.496 88.8176 245.928 90.4043 245.928 92.2476C245.928 94.0676 245.496 95.6426 244.633 96.9726C243.77 98.2793 242.545 99.2826 240.958 99.9826C239.371 100.683 237.481 101.033 235.288 101.033H227.833L230.353 98.5476V107.858H224.683ZM240.258 107.858L234.133 98.9676H240.188L246.383 107.858H240.258ZM230.353 99.1776L227.833 96.5176H234.973C236.723 96.5176 238.029 96.1443 238.893 95.3976C239.756 94.6276 240.188 93.5776 240.188 92.2476C240.188 90.8943 239.756 89.8443 238.893 89.0976C238.029 88.3509 236.723 87.9776 234.973 87.9776H227.833L230.353 85.2826V99.1776Z" fill="#A9A9A9"/>
<path d="M137.89 88.5322C135.097 88.5322 134.322 83.8303 134.121 81.9042C134.07 81.4083 134.328 80.9469 134.756 80.7112C135.332 80.3951 136.053 80.5724 136.461 81.1C137.169 82.0156 138.261 83.2884 138.968 83.4398C140.085 83.6793 158.757 83.4398 159.878 83.4398C160.999 83.4398 163.438 83.5517 165.224 85.629C167.009 87.7062 163.704 88.5322 162.556 88.5322L157.793 88.5322C155.934 88.5322 154.243 89.5911 153.412 91.2748L145.766 106.761C145.466 107.368 144.855 107.75 144.184 107.75C143.014 107.75 142.149 106.625 142.431 105.472L145.036 94.8446C145.819 91.6498 143.42 88.5322 140.178 88.5322L137.89 88.5322Z" fill="#A9A9A9"/>
<path d="M148.674 75.4763L150.633 78.3041C151.783 79.9645 150.639 82.2377 148.653 82.2377C147.623 82.2377 146.695 81.5845 146.329 80.6008L145.125 77.3699C144.624 76.0252 145.584 74.5962 146.992 74.5903C147.659 74.5875 148.288 74.9188 148.674 75.4763Z" fill="#A9A9A9"/>
</g>
<defs>
<filter id="filter0_i_661_6" x="66.3884" y="74.5903" width="179.994" height="37.6873" filterUnits="userSpaceOnUse" color-interpolation-filters="sRGB">
<feFlood flood-opacity="0" result="BackgroundImageFix"/>
<feBlend mode="normal" in="SourceGraphic" in2="BackgroundImageFix" result="shape"/>
<feColorMatrix in="SourceAlpha" type="matrix" values="0 0 0 0 0 0 0 0 0 0 0 0 0 0 0 0 0 0 127 0" result="hardAlpha"/>
<feOffset dy="4"/>
<feGaussianBlur stdDeviation="2"/>
<feComposite in2="hardAlpha" operator="arithmetic" k2="-1" k3="1"/>
<feColorMatrix type="matrix" values="0 0 0 0 0 0 0 0 0 0 0 0 0 0 0 0 0 0 0.25 0"/>
<feBlend mode="normal" in2="shape" result="effect1_innerShadow_661_6"/>
</filter>
</defs>
</svg>
